<svg xmlns="http://www.w3.org/2000/svg" xmlns:xlink="http://www.w3.org/1999/xlink" contentStyleType="text/css" data-diagram-type="ACTIVITY" height="593px" preserveAspectRatio="none" style="width:198px;height:593px;" version="1.1" viewBox="0 0 198 593" width="198px" zoomAndPan="magnify"><defs/><g><ellipse cx="99" cy="20" fill="#222222" rx="10" ry="10" style="stroke:#222222;stroke-width:1;"/><rect fill="#F1F1F1" height="35.0938" rx="12.5" ry="12.5" style="stroke:#181818;stroke-width:0.5;" width="114.6816" x="41.6592" y="50"/><text fill="#000000" font-family="メイリオ, Helvetica Neue, Helvetica, Arial, sans-serif" font-size="12" lengthAdjust="spacing" textLength="94.6816" x="51.6592" y="72.457">STDIN: SVG Text</text><rect fill="#F1F1F1" height="35.0938" rx="12.5" ry="12.5" style="stroke:#181818;stroke-width:0.5;" width="104" x="47" y="105.0938"/><text fill="#000000" font-family="メイリオ, Helvetica Neue, Helvetica, Arial, sans-serif" font-size="12" lengthAdjust="spacing" textLength="84" x="57" y="127.5508">&#12458;&#12503;&#12471;&#12519;&#12531;&#35299;&#26512;</text><rect fill="#F1F1F1" height="35.0938" rx="12.5" ry="12.5" style="stroke:#181818;stroke-width:0.5;" width="102.7109" x="47.6445" y="160.1875"/><text fill="#000000" font-family="メイリオ, Helvetica Neue, Helvetica, Arial, sans-serif" font-size="12" lengthAdjust="spacing" textLength="82.7109" x="57.6445" y="182.6445">Puppeteer &#36215;&#21205;</text><rect fill="#F1F1F1" height="50.1875" rx="12.5" ry="12.5" style="stroke:#181818;stroke-width:0.5;" width="107.3516" x="45.3242" y="215.2813"/><text fill="#000000" font-family="メイリオ, Helvetica Neue, Helvetica, Arial, sans-serif" font-size="12" lengthAdjust="spacing" textLength="87.3516" x="55.3242" y="237.7383">&#20206; viewport &#35373;&#23450;</text><text fill="#000000" font-family="メイリオ, Helvetica Neue, Helvetica, Arial, sans-serif" font-size="12" lengthAdjust="spacing" textLength="59.3906" x="55.3242" y="252.832">4096x4096</text><rect fill="#F1F1F1" height="35.0938" rx="12.5" ry="12.5" style="stroke:#181818;stroke-width:0.5;" width="160.0098" x="18.9951" y="285.4688"/><text fill="#000000" font-family="メイリオ, Helvetica Neue, Helvetica, Arial, sans-serif" font-size="12" lengthAdjust="spacing" textLength="140.0098" x="28.9951" y="307.9258">SVG &#12434; HTML &#12395;&#22475;&#12417;&#36796;&#12415;</text><rect fill="#F1F1F1" height="35.0938" rx="12.5" ry="12.5" style="stroke:#181818;stroke-width:0.5;" width="152" x="23" y="340.5625"/><text fill="#000000" font-family="メイリオ, Helvetica Neue, Helvetica, Arial, sans-serif" font-size="12" lengthAdjust="spacing" textLength="132" x="33" y="363.0195">&#12469;&#12452;&#12474;&#27770;&#23450;&#12525;&#12472;&#12483;&#12463;&#23455;&#34892;</text><rect fill="#F1F1F1" height="35.0938" rx="12.5" ry="12.5" style="stroke:#181818;stroke-width:0.5;" width="131.3516" x="33.3242" y="395.6563"/><text fill="#000000" font-family="メイリオ, Helvetica Neue, Helvetica, Arial, sans-serif" font-size="12" lengthAdjust="spacing" textLength="111.3516" x="43.3242" y="418.1133">&#26368;&#36969; viewport &#20877;&#35373;&#23450;</text><rect fill="#F1F1F1" height="35.0938" rx="12.5" ry="12.5" style="stroke:#181818;stroke-width:0.5;" width="176" x="11" y="450.75"/><text fill="#000000" font-family="メイリオ, Helvetica Neue, Helvetica, Arial, sans-serif" font-size="12" lengthAdjust="spacing" textLength="156" x="21" y="473.207">&#39640;&#35299;&#20687;&#24230;&#12473;&#12463;&#12522;&#12540;&#12531;&#12471;&#12519;&#12483;&#12488;</text><rect fill="#F1F1F1" height="35.0938" rx="12.5" ry="12.5" style="stroke:#181818;stroke-width:0.5;" width="139.3496" x="29.3252" y="505.8438"/><text fill="#000000" font-family="メイリオ, Helvetica Neue, Helvetica, Arial, sans-serif" font-size="12" lengthAdjust="spacing" textLength="119.3496" x="39.3252" y="528.3008">STDOUT: PNG Binary</text><ellipse cx="99" cy="571.9375" fill="none" rx="11" ry="11" style="stroke:#222222;stroke-width:1;"/><ellipse cx="99" cy="571.9375" fill="#222222" rx="6" ry="6" style="stroke:#222222;stroke-width:1;"/><line style="stroke:#181818;stroke-width:1;" x1="99" x2="99" y1="30" y2="50"/><polygon fill="#181818" points="95,40,99,50,103,40,99,44" style="stroke:#181818;stroke-width:1;"/><line style="stroke:#181818;stroke-width:1;" x1="99" x2="99" y1="85.0938" y2="105.0938"/><polygon fill="#181818" points="95,95.0938,99,105.0938,103,95.0938,99,99.0938" style="stroke:#181818;stroke-width:1;"/><line style="stroke:#181818;stroke-width:1;" x1="99" x2="99" y1="140.1875" y2="160.1875"/><polygon fill="#181818" points="95,150.1875,99,160.1875,103,150.1875,99,154.1875" style="stroke:#181818;stroke-width:1;"/><line style="stroke:#181818;stroke-width:1;" x1="99" x2="99" y1="195.2813" y2="215.2813"/><polygon fill="#181818" points="95,205.2813,99,215.2813,103,205.2813,99,209.2813" style="stroke:#181818;stroke-width:1;"/><line style="stroke:#181818;stroke-width:1;" x1="99" x2="99" y1="265.4688" y2="285.4688"/><polygon fill="#181818" points="95,275.4688,99,285.4688,103,275.4688,99,279.4688" style="stroke:#181818;stroke-width:1;"/><line style="stroke:#181818;stroke-width:1;" x1="99" x2="99" y1="320.5625" y2="340.5625"/><polygon fill="#181818" points="95,330.5625,99,340.5625,103,330.5625,99,334.5625" style="stroke:#181818;stroke-width:1;"/><line style="stroke:#181818;stroke-width:1;" x1="99" x2="99" y1="375.6563" y2="395.6563"/><polygon fill="#181818" points="95,385.6563,99,395.6563,103,385.6563,99,389.6563" style="stroke:#181818;stroke-width:1;"/><line style="stroke:#181818;stroke-width:1;" x1="99" x2="99" y1="430.75" y2="450.75"/><polygon fill="#181818" points="95,440.75,99,450.75,103,440.75,99,444.75" style="stroke:#181818;stroke-width:1;"/><line style="stroke:#181818;stroke-width:1;" x1="99" x2="99" y1="485.8438" y2="505.8438"/><polygon fill="#181818" points="95,495.8438,99,505.8438,103,495.8438,99,499.8438" style="stroke:#181818;stroke-width:1;"/><line style="stroke:#181818;stroke-width:1;" x1="99" x2="99" y1="540.9375" y2="560.9375"/><polygon fill="#181818" points="95,550.9375,99,560.9375,103,550.9375,99,554.9375" style="stroke:#181818;stroke-width:1;"/><!--SRC=[LL31IiD05BptA_OFz222IV6WGXMq5XezULbraT2w2PkjjZUp2o9KKGHHH2oYMBKq8bAgiUZ7F3UaV-66LfhEuV5WXlTc9klnMfdCPh8JmyKhsTJ53E-YJRnLsc5EXMxFEsM78SumzJH5ACyW3OzZDjWI64LhOIbleE9w3bcaoiqH0-85v2M8BiWcoFUuUH_TdgNuGiLr2IU4eRZJLVMB5FNx5Q0zc-ox3kCeVcghu7g3JatEJ5UJaH8cRq6SeqLhPHc1trADEWW__kw1_pDcfGFY0KGOlONw5iWsY0-G4iIh2XhntN5A6zqSzFtdqNjrU39maDBqMrSwZfAdAdm4yQdFWDHXUphcVru9yiWSgsbrpJ9G8Pz3SpR5h6OEstJSFm00]--></g></svg>