<svg xmlns="http://www.w3.org/2000/svg" viewBox="0 0 24 24" role="img" aria-label="GitLab">
  <path fill="#FC6D26" d="M23.6004 9.5927l-.0337-.0862L20.3 .9814a.851.851 0 0 0-.3362-.405.8748.8748 0 0 0-.9997.0539.8748.8748 0 0 0-.29.4399l-2.2055 6.748H7.5375l-2.2057-6.748a.8573.8573 0 0 0-.29-.4412.8748.8748 0 0 0-.9997-.0537.8585.8585 0 0 0-.3362.405L.4332 9.5015l-.0325.0862a6.0657 6.0657 0 0 0 2.0119 7.0105l.0113.0087.0301.0211 4.976 3.725 2.462 1.863 1.4995 1.1306a1.0085 1.0085 0 0 0 1.2197 0l1.4995-1.1306 2.462-1.863 5.0061-3.7474.0125-.01a6.0682 6.0682 0 0 0 2.0094-7.003z"/>
</svg>
