<svg role="img" viewBox="0 0 48 48" xmlns="http://www.w3.org/2000/svg"><title>MkDocs</title><defs><linearGradient id="background" x1="0" y1="0" x2="0" y2="1"><stop offset="0" stop-color="#1c1919"/><stop offset="1" stop-color="#5e5e5e"/></linearGradient></defs><circle cx="24" cy="24" r="23" fill="url(#background)"/><path fill="#ffffff" transform="translate(8 8) scale(1.3333333333)" d="M12 8a3 3 0 0 0 3-3 3 3 0 0 0-3-3 3 3 0 0 0-3 3 3 3 0 0 0 3 3m0 3.54C9.64 9.35 6.5 8 3 8v11c3.5 0 6.64 1.35 9 3.54 2.36-2.19 5.5-3.54 9-3.54V8c-3.5 0-6.64 1.35-9 3.54"/></svg>
