<?xml version="1.0" encoding="UTF-8"?>
<svg id="_レイヤー_1" data-name="レイヤー_1" xmlns="http://www.w3.org/2000/svg" version="1.1" xmlns:xlink="http://www.w3.org/1999/xlink" viewBox="0 0 28.66 27.2">
  <!-- Generator: Adobe Illustrator 30.5.1, SVG Export Plug-In . SVG Version: 2.1.4 Build 3)  -->
  <defs>
    <style>
      .st0 {
        isolation: isolate;
        opacity: .3;
        stroke: #969696;
      }

      .st1 {
        fill: url(#_名称未設定グラデーション);
        stroke: #000;
        stroke-width: .5px;
      }

      .st2 {
        fill: url(#_名称未設定グラデーション_2);
        stroke: #4665a2;
        stroke-width: .7px;
      }
    </style>
    <linearGradient id="_名称未設定グラデーション" data-name="名称未設定グラデーション" x1="14.33" y1="2.52" x2="14.33" y2=".56" gradientTransform="translate(0 26.79) scale(1 -1)" gradientUnits="userSpaceOnUse">
      <stop offset="0" stop-color="#5373b4"/>
      <stop offset="1" stop-color="#7c95c6"/>
    </linearGradient>
    <linearGradient id="_名称未設定グラデーション_2" data-name="名称未設定グラデーション 2" x1="20.19" y1="20.61" x2="20.09" y2="29.2" gradientTransform="translate(-5.26 35.52) scale(.98 -1.02)" gradientUnits="userSpaceOnUse">
      <stop offset="0" stop-color="#c0cce3"/>
      <stop offset="1" stop-color="#eef1f7"/>
    </linearGradient>
  </defs>
  <path class="st1" d="M.25,23.61h28.12s.03,3.3.03,3.3l-28.12.04-.04-3.35Z"/>
  <g>
    <path class="st0" d="M18.57,1.22v7.43h-.05c-.44-.72-1.04-1.27-1.81-1.63-.75-.38-1.55-.57-2.39-.57-1.04,0-1.96.22-2.74.66-.79.42-1.44.98-1.97,1.69-.51.7-.9,1.53-1.18,2.46-.26.91-.38,1.87-.38,2.86s.13,2.02.38,2.97c.27.95.67,1.8,1.18,2.54.53.72,1.2,1.31,2,1.74.8.42,1.74.63,2.8.63.93,0,1.77-.17,2.5-.51.75-.36,1.35-.94,1.81-1.74h.05v1.89h3.7V1.22h-3.89ZM15.36,9.5c.64,0,1.17.13,1.59.4.42.27.76.62,1.01,1.06.27.42.47.91.58,1.49.11.55.16,1.13.16,1.74s-.06,1.2-.16,1.77-.29,1.09-.55,1.54c-.26.44-.6.79-1.04,1.06-.42.27-.95.4-1.59.4-.6,0-1.12-.13-1.56-.4-.42-.29-.78-.65-1.07-1.08-.27-.46-.47-.97-.6-1.54s-.19-1.14-.19-1.71c0-.61.06-1.19.16-1.74.13-.57.32-1.08.58-1.52.27-.44.63-.79,1.07-1.06.44-.27.98-.4,1.62-.4h0Z"/>
    <path class="st2" d="M17.76.35v7.43h-.05c-.44-.72-1.04-1.27-1.81-1.63-.75-.38-1.55-.57-2.39-.57-1.04,0-1.96.22-2.74.66-.79.42-1.44.98-1.97,1.69-.51.7-.9,1.53-1.18,2.46-.26.91-.38,1.87-.38,2.86s.13,2.02.38,2.97c.27.95.67,1.8,1.18,2.54.53.72,1.2,1.31,2,1.74.8.42,1.74.63,2.8.63.93,0,1.77-.17,2.5-.51.75-.36,1.35-.94,1.81-1.74h.05v1.89h3.7V.35h-3.89ZM14.55,8.64c.64,0,1.17.13,1.59.4s.76.62,1.01,1.06c.27.42.47.91.58,1.49.11.55.16,1.13.16,1.74s-.06,1.2-.16,1.77-.29,1.09-.55,1.54c-.26.44-.6.79-1.04,1.06-.42.27-.95.4-1.59.4-.6,0-1.12-.13-1.56-.4-.42-.29-.78-.65-1.07-1.08-.27-.46-.47-.97-.6-1.54s-.19-1.14-.19-1.71c0-.61.06-1.19.16-1.74.13-.57.32-1.08.58-1.52.27-.44.63-.79,1.07-1.06.44-.27.98-.4,1.62-.4h0Z"/>
  </g>
</svg>