<svg xmlns="http://www.w3.org/2000/svg" xmlns:xlink="http://www.w3.org/1999/xlink" contentStyleType="text/css" data-diagram-type="ACTIVITY" height="808px" preserveAspectRatio="none" style="width:420px;height:808px;" version="1.1" viewBox="0 0 420 808" width="420px" zoomAndPan="magnify"><defs/><g><ellipse cx="234.5337" cy="20" fill="#222222" rx="10" ry="10" style="stroke:#222222;stroke-width:1;"/><rect fill="#F1F1F1" height="35.0938" rx="12.5" ry="12.5" style="stroke:#181818;stroke-width:0.5;" width="140" x="164.5337" y="50"/><text fill="#000000" font-family="メイリオ, Helvetica Neue, Helvetica, Arial, sans-serif" font-size="12" lengthAdjust="spacing" textLength="120" x="174.5337" y="72.457">&#29872;&#22659;&#22793;&#25968;&#12398;&#20445;&#23384;&#12392;&#35373;&#23450;</text><rect fill="#F1F1F1" height="35.0938" rx="12.5" ry="12.5" style="stroke:#181818;stroke-width:0.5;" width="236.75" x="116.1587" y="105.0938"/><text fill="#000000" font-family="メイリオ, Helvetica Neue, Helvetica, Arial, sans-serif" font-size="12" lengthAdjust="spacing" textLength="216.75" x="126.1587" y="127.5508">Puppeteer &#12364; chrome-wrapper.sh &#12434;&#36215;&#21205;</text><rect fill="#F1F1F1" height="35.0938" rx="12.5" ry="12.5" style="stroke:#181818;stroke-width:0.5;" width="284.0645" x="92.5015" y="160.1875"/><text fill="#000000" font-family="メイリオ, Helvetica Neue, Helvetica, Arial, sans-serif" font-size="12" lengthAdjust="spacing" textLength="264.0645" x="102.5015" y="182.6445">&#20803;&#12398; PUPPETEER_EXECUTABLE_PATH &#12434;&#24489;&#20803;</text><rect fill="#F1F1F1" height="35.0938" rx="12.5" ry="12.5" style="stroke:#181818;stroke-width:0.5;" width="234.6758" x="117.1958" y="215.2813"/><text fill="#000000" font-family="メイリオ, Helvetica Neue, Helvetica, Arial, sans-serif" font-size="12" lengthAdjust="spacing" textLength="214.6758" x="127.1958" y="237.7383">Chromium &#23455;&#34892;&#21487;&#33021;&#12501;&#12449;&#12452;&#12523;&#12497;&#12473;&#12434;&#21462;&#24471;</text><rect fill="#F1F1F1" height="35.0938" rx="12.5" ry="12.5" style="stroke:#181818;stroke-width:0.5;" width="181.9883" x="143.5396" y="270.375"/><text fill="#000000" font-family="メイリオ, Helvetica Neue, Helvetica, Arial, sans-serif" font-size="12" lengthAdjust="spacing" textLength="161.9883" x="153.5396" y="292.832">FIFO (&#21517;&#21069;&#20184;&#12365;&#12497;&#12452;&#12503;) &#12434;&#20316;&#25104;</text><rect fill="#F1F1F1" height="35.0938" rx="12.5" ry="12.5" style="stroke:#181818;stroke-width:0.5;" width="162.6758" x="153.1958" y="325.4688"/><text fill="#000000" font-family="メイリオ, Helvetica Neue, Helvetica, Arial, sans-serif" font-size="12" lengthAdjust="spacing" textLength="142.6758" x="163.1958" y="347.9258">Chromium &#12503;&#12525;&#12475;&#12473;&#12434;&#36215;&#21205;</text><rect fill="#F1F1F1" height="35.0938" rx="12.5" ry="12.5" style="stroke:#181818;stroke-width:0.5;" width="114.0078" x="177.5298" y="380.5625"/><text fill="#000000" font-family="メイリオ, Helvetica Neue, Helvetica, Arial, sans-serif" font-size="12" lengthAdjust="spacing" textLength="94.0078" x="187.5298" y="403.0195">stderr &#20986;&#21147;&#12434;&#30435;&#35222;</text><polygon fill="#F1F1F1" points="155.0657,435.6563,314.0017,435.6563,326.0017,447.6563,314.0017,459.6563,155.0657,459.6563,143.0657,447.6563,155.0657,435.6563" style="stroke:#181818;stroke-width:0.5;"/><text fill="#000000" font-family="メイリオ, Helvetica Neue, Helvetica, Arial, sans-serif" font-size="11" lengthAdjust="spacing" textLength="158.936" x="155.0657" y="452.1572">DevTools WebSocket &#34892;&#12434;&#26908;&#20986;?</text><text fill="#000000" font-family="メイリオ, Helvetica Neue, Helvetica, Arial, sans-serif" font-size="11" lengthAdjust="spacing" textLength="18.9546" x="124.1111" y="445.2393">Yes</text><text fill="#000000" font-family="メイリオ, Helvetica Neue, Helvetica, Arial, sans-serif" font-size="11" lengthAdjust="spacing" textLength="14.0615" x="326.0017" y="445.2393">No</text><rect fill="#F1F1F1" height="35.0938" rx="12.5" ry="12.5" style="stroke:#181818;stroke-width:0.5;" width="116" x="72.0225" y="469.6563"/><text fill="#000000" font-family="メイリオ, Helvetica Neue, Helvetica, Arial, sans-serif" font-size="12" lengthAdjust="spacing" textLength="96" x="82.0225" y="492.1133">&#12509;&#12540;&#12488;&#30058;&#21495;&#12434;&#25277;&#20986;</text><rect fill="#F1F1F1" height="35.0938" rx="12.5" ry="12.5" style="stroke:#181818;stroke-width:0.5;" width="176.6797" x="41.6826" y="524.75"/><text fill="#000000" font-family="メイリオ, Helvetica Neue, Helvetica, Arial, sans-serif" font-size="12" lengthAdjust="spacing" textLength="156.6797" x="51.6826" y="547.207">&#12509;&#12540;&#12488;&#12398; LISTEN &#29366;&#24907;&#12434;&#30906;&#35469;</text><rect fill="#F1F1F1" height="35.0938" rx="12.5" ry="12.5" style="stroke:#181818;stroke-width:0.5;" width="180.6934" x="39.6758" y="579.8438"/><text fill="#000000" font-family="メイリオ, Helvetica Neue, Helvetica, Arial, sans-serif" font-size="12" lengthAdjust="spacing" textLength="160.6934" x="49.6758" y="602.3008">DevTools API &#12398;&#24540;&#31572;&#24615;&#12434;&#30906;&#35469;</text><rect fill="#F1F1F1" height="35.0938" rx="12.5" ry="12.5" style="stroke:#181818;stroke-width:0.5;" width="238.0449" x="11" y="634.9375"/><text fill="#000000" font-family="メイリオ, Helvetica Neue, Helvetica, Arial, sans-serif" font-size="12" lengthAdjust="spacing" textLength="218.0449" x="21" y="657.3945">&#12496;&#12483;&#12501;&#12449;&#12373;&#12428;&#12383;&#20986;&#21147;&#12434; Puppeteer &#12395;&#36865;&#20449;</text><rect fill="#F1F1F1" height="35.0938" rx="12.5" ry="12.5" style="stroke:#181818;stroke-width:0.5;" width="140" x="269.0449" y="469.6563"/><text fill="#000000" font-family="メイリオ, Helvetica Neue, Helvetica, Arial, sans-serif" font-size="12" lengthAdjust="spacing" textLength="120" x="279.0449" y="492.1133">&#20986;&#21147;&#12434;&#12496;&#12483;&#12501;&#12449;&#12395;&#33988;&#31309;</text><polygon fill="#F1F1F1" points="234.5337,676.0313,246.5337,688.0313,234.5337,700.0313,222.5337,688.0313,234.5337,676.0313" style="stroke:#181818;stroke-width:0.5;"/><rect fill="#F1F1F1" height="35.0938" rx="12.5" ry="12.5" style="stroke:#181818;stroke-width:0.5;" width="153.3418" x="157.8628" y="720.0313"/><text fill="#000000" font-family="メイリオ, Helvetica Neue, Helvetica, Arial, sans-serif" font-size="12" lengthAdjust="spacing" textLength="133.3418" x="167.8628" y="742.4883">&#36890;&#24120;&#12398; stderr &#20986;&#21147;&#12434;&#36578;&#36865;</text><ellipse cx="234.5337" cy="786.125" fill="none" rx="11" ry="11" style="stroke:#222222;stroke-width:1;"/><ellipse cx="234.5337" cy="786.125" fill="#222222" rx="6" ry="6" style="stroke:#222222;stroke-width:1;"/><line style="stroke:#181818;stroke-width:1;" x1="234.5337" x2="234.5337" y1="30" y2="50"/><polygon fill="#181818" points="230.5337,40,234.5337,50,238.5337,40,234.5337,44" style="stroke:#181818;stroke-width:1;"/><line style="stroke:#181818;stroke-width:1;" x1="234.5337" x2="234.5337" y1="85.0938" y2="105.0938"/><polygon fill="#181818" points="230.5337,95.0938,234.5337,105.0938,238.5337,95.0938,234.5337,99.0938" style="stroke:#181818;stroke-width:1;"/><line style="stroke:#181818;stroke-width:1;" x1="234.5337" x2="234.5337" y1="140.1875" y2="160.1875"/><polygon fill="#181818" points="230.5337,150.1875,234.5337,160.1875,238.5337,150.1875,234.5337,154.1875" style="stroke:#181818;stroke-width:1;"/><line style="stroke:#181818;stroke-width:1;" x1="234.5337" x2="234.5337" y1="195.2813" y2="215.2813"/><polygon fill="#181818" points="230.5337,205.2813,234.5337,215.2813,238.5337,205.2813,234.5337,209.2813" style="stroke:#181818;stroke-width:1;"/><line style="stroke:#181818;stroke-width:1;" x1="234.5337" x2="234.5337" y1="250.375" y2="270.375"/><polygon fill="#181818" points="230.5337,260.375,234.5337,270.375,238.5337,260.375,234.5337,264.375" style="stroke:#181818;stroke-width:1;"/><line style="stroke:#181818;stroke-width:1;" x1="234.5337" x2="234.5337" y1="305.4688" y2="325.4688"/><polygon fill="#181818" points="230.5337,315.4688,234.5337,325.4688,238.5337,315.4688,234.5337,319.4688" style="stroke:#181818;stroke-width:1;"/><line style="stroke:#181818;stroke-width:1;" x1="234.5337" x2="234.5337" y1="360.5625" y2="380.5625"/><polygon fill="#181818" points="230.5337,370.5625,234.5337,380.5625,238.5337,370.5625,234.5337,374.5625" style="stroke:#181818;stroke-width:1;"/><line style="stroke:#181818;stroke-width:1;" x1="130.0225" x2="130.0225" y1="504.75" y2="524.75"/><polygon fill="#181818" points="126.0225,514.75,130.0225,524.75,134.0225,514.75,130.0225,518.75" style="stroke:#181818;stroke-width:1;"/><line style="stroke:#181818;stroke-width:1;" x1="130.0225" x2="130.0225" y1="559.8438" y2="579.8438"/><polygon fill="#181818" points="126.0225,569.8438,130.0225,579.8438,134.0225,569.8438,130.0225,573.8438" style="stroke:#181818;stroke-width:1;"/><line style="stroke:#181818;stroke-width:1;" x1="130.0225" x2="130.0225" y1="614.9375" y2="634.9375"/><polygon fill="#181818" points="126.0225,624.9375,130.0225,634.9375,134.0225,624.9375,130.0225,628.9375" style="stroke:#181818;stroke-width:1;"/><line style="stroke:#181818;stroke-width:1;" x1="143.0657" x2="130.0225" y1="447.6563" y2="447.6563"/><line style="stroke:#181818;stroke-width:1;" x1="130.0225" x2="130.0225" y1="447.6563" y2="469.6563"/><polygon fill="#181818" points="126.0225,459.6563,130.0225,469.6563,134.0225,459.6563,130.0225,463.6563" style="stroke:#181818;stroke-width:1;"/><line style="stroke:#181818;stroke-width:1;" x1="326.0017" x2="339.0449" y1="447.6563" y2="447.6563"/><line style="stroke:#181818;stroke-width:1;" x1="339.0449" x2="339.0449" y1="447.6563" y2="469.6563"/><polygon fill="#181818" points="335.0449,459.6563,339.0449,469.6563,343.0449,459.6563,339.0449,463.6563" style="stroke:#181818;stroke-width:1;"/><line style="stroke:#181818;stroke-width:1;" x1="130.0225" x2="130.0225" y1="670.0313" y2="688.0313"/><line style="stroke:#181818;stroke-width:1;" x1="130.0225" x2="222.5337" y1="688.0313" y2="688.0313"/><polygon fill="#181818" points="212.5337,684.0313,222.5337,688.0313,212.5337,692.0313,216.5337,688.0313" style="stroke:#181818;stroke-width:1;"/><line style="stroke:#181818;stroke-width:1;" x1="339.0449" x2="339.0449" y1="504.75" y2="688.0313"/><line style="stroke:#181818;stroke-width:1;" x1="339.0449" x2="246.5337" y1="688.0313" y2="688.0313"/><polygon fill="#181818" points="256.5337,684.0313,246.5337,688.0313,256.5337,692.0313,252.5337,688.0313" style="stroke:#181818;stroke-width:1;"/><line style="stroke:#181818;stroke-width:1;" x1="234.5337" x2="234.5337" y1="415.6563" y2="435.6563"/><polygon fill="#181818" points="230.5337,425.6563,234.5337,435.6563,238.5337,425.6563,234.5337,429.6563" style="stroke:#181818;stroke-width:1;"/><line style="stroke:#181818;stroke-width:1;" x1="234.5337" x2="234.5337" y1="700.0313" y2="720.0313"/><polygon fill="#181818" points="230.5337,710.0313,234.5337,720.0313,238.5337,710.0313,234.5337,714.0313" style="stroke:#181818;stroke-width:1;"/><line style="stroke:#181818;stroke-width:1;" x1="234.5337" x2="234.5337" y1="755.125" y2="775.125"/><polygon fill="#181818" points="230.5337,765.125,234.5337,775.125,238.5337,765.125,234.5337,769.125" style="stroke:#181818;stroke-width:1;"/><!--SRC=[TP91Jnf168Rl_eevmg7jlHWRIjT8OdHJrxGzcHL68S0EcLdQzCRkr5GH0hMYHZ46IbgLGBsqMYdoOuRPNVz5PvJ0bjOvJ2Qxx_D-t_lDJ1FpVHhEJ4q_6Hv8AcbaTQndmAeUIwrZb3FY4PH669XODuZu1Grp2eX5J1tVd-HwwkvSy0RbpIsdUi6ipg1_pDi7p3hrJjkySnWQ2zLSDWjD235WLX744XXbuADtM1TVyMEI0CpUyNvSyksgZ-4RL7W2TLbL5KrHNguehvN8iXP-Fg-ig65jJaByvap8V514MYTp6S0x9rwzoClVFTfZjChiEhERZBOO_SJiNn8jx_6RVHyw6vrT105UAV6jqg0hOfJkj0BQ3yfQWrxDsQpyhvPGCDfcTlVU-Pyan8n3Z07_UCqBHqBW7dtnlkwD1Sar47W1tse8fGbu1LUNK2m5JI3w5sAdMHFWio0m4z00WJUG14VWdJkZnup-PdJJhPxpygL42Zs1X1wGoQ7EHvSqPG6uXP_EnhRig77jdPScY55BOJKgxgt3-pMtlUlalpq4C5fXb0wdROczoAoJKMhWVmIjsxmrwDV71Z1D80Wie8bm8_flxvRt-ODxvgiFZNXoRJpns_mXlxgIIITdxtKRedHe-9fHzWy0]--></g></svg>