<svg xmlns="http://www.w3.org/2000/svg" xmlns:xlink="http://www.w3.org/1999/xlink" contentStyleType="text/css" data-diagram-type="JSON" height="173px" preserveAspectRatio="none" style="width:1714px;height:173px;background:#FFFFFF;" version="1.1" viewBox="0 0 1714 173" width="1714px" zoomAndPan="magnify"><defs/><g><rect fill="#F1F1F1" height="21.6094" rx="5" ry="5" style="stroke:#F1F1F1;stroke-width:1.5;" width="89.2549" x="10" y="52.6328"/><text fill="#000000" font-family="メイリオ, Helvetica Neue, Helvetica, Arial, sans-serif" font-size="14" font-weight="bold" lengthAdjust="spacing" textLength="57.5859" x="15" y="69.166">glossary</text><text fill="#000000" font-family="メイリオ, Helvetica Neue, Helvetica, Arial, sans-serif" font-size="14" lengthAdjust="spacing" textLength="11.6689" x="82.5859" y="69.166">&#160;&#160;&#160;</text><line style="stroke:#000000;stroke-width:1;" x1="77.5859" x2="77.5859" y1="52.6328" y2="74.2422"/><rect fill="none" height="21.6094" rx="5" ry="5" style="stroke:#000000;stroke-width:1.5;" width="89.2549" x="10" y="52.6328"/><rect fill="#F1F1F1" height="43.2188" rx="5" ry="5" style="stroke:#F1F1F1;stroke-width:1.5;" width="189.627" x="136" y="42.0234"/><text fill="#000000" font-family="メイリオ, Helvetica Neue, Helvetica, Arial, sans-serif" font-size="14" font-weight="bold" lengthAdjust="spacing" textLength="24.8896" x="141" y="58.5566">title</text><text fill="#000000" font-family="メイリオ, Helvetica Neue, Helvetica, Arial, sans-serif" font-size="14" lengthAdjust="spacing" textLength="108.9375" x="211.6895" y="58.5566">example glossary</text><line style="stroke:#000000;stroke-width:1;" x1="206.6895" x2="206.6895" y1="42.0234" y2="63.6328"/><line style="stroke:#000000;stroke-width:1;" x1="136" x2="325.627" y1="63.6328" y2="63.6328"/><text fill="#000000" font-family="メイリオ, Helvetica Neue, Helvetica, Arial, sans-serif" font-size="14" font-weight="bold" lengthAdjust="spacing" textLength="60.6895" x="141" y="80.166">GlossDiv</text><text fill="#000000" font-family="メイリオ, Helvetica Neue, Helvetica, Arial, sans-serif" font-size="14" lengthAdjust="spacing" textLength="11.6689" x="211.6895" y="80.166">&#160;&#160;&#160;</text><line style="stroke:#000000;stroke-width:1;" x1="206.6895" x2="206.6895" y1="63.6328" y2="85.2422"/><rect fill="none" height="43.2188" rx="5" ry="5" style="stroke:#000000;stroke-width:1.5;" width="189.627" x="136" y="42.0234"/><rect fill="#F1F1F1" height="43.2188" rx="5" ry="5" style="stroke:#F1F1F1;stroke-width:1.5;" width="95.4619" x="363" y="53.0234"/><text fill="#000000" font-family="メイリオ, Helvetica Neue, Helvetica, Arial, sans-serif" font-size="14" font-weight="bold" lengthAdjust="spacing" textLength="24.8896" x="368" y="69.5566">title</text><text fill="#000000" font-family="メイリオ, Helvetica Neue, Helvetica, Arial, sans-serif" font-size="14" lengthAdjust="spacing" textLength="9.3379" x="441.793" y="69.5566">S</text><line style="stroke:#000000;stroke-width:1;" x1="436.793" x2="436.793" y1="53.0234" y2="74.6328"/><line style="stroke:#000000;stroke-width:1;" x1="363" x2="458.4619" y1="74.6328" y2="74.6328"/><text fill="#000000" font-family="メイリオ, Helvetica Neue, Helvetica, Arial, sans-serif" font-size="14" font-weight="bold" lengthAdjust="spacing" textLength="63.793" x="368" y="91.166">GlossList</text><text fill="#000000" font-family="メイリオ, Helvetica Neue, Helvetica, Arial, sans-serif" font-size="14" lengthAdjust="spacing" textLength="11.6689" x="441.793" y="91.166">&#160;&#160;&#160;</text><line style="stroke:#000000;stroke-width:1;" x1="436.793" x2="436.793" y1="74.6328" y2="96.2422"/><rect fill="none" height="43.2188" rx="5" ry="5" style="stroke:#000000;stroke-width:1.5;" width="95.4619" x="363" y="53.0234"/><rect fill="#F1F1F1" height="21.6094" rx="5" ry="5" style="stroke:#F1F1F1;stroke-width:1.5;" width="106.3584" x="495" y="74.6328"/><text fill="#000000" font-family="メイリオ, Helvetica Neue, Helvetica, Arial, sans-serif" font-size="14" font-weight="bold" lengthAdjust="spacing" textLength="74.6895" x="500" y="91.166">GlossEntry</text><text fill="#000000" font-family="メイリオ, Helvetica Neue, Helvetica, Arial, sans-serif" font-size="14" lengthAdjust="spacing" textLength="11.6689" x="584.6895" y="91.166">&#160;&#160;&#160;</text><line style="stroke:#000000;stroke-width:1;" x1="579.6895" x2="579.6895" y1="74.6328" y2="96.2422"/><rect fill="none" height="21.6094" rx="5" ry="5" style="stroke:#000000;stroke-width:1.5;" width="106.3584" x="495" y="74.6328"/><rect fill="#F1F1F1" height="151.2656" rx="5" ry="5" style="stroke:#F1F1F1;stroke-width:1.5;" width="346.0879" x="638" y="10"/><text fill="#000000" font-family="メイリオ, Helvetica Neue, Helvetica, Arial, sans-serif" font-size="14" font-weight="bold" lengthAdjust="spacing" textLength="14" x="643" y="26.5332">ID</text><text fill="#000000" font-family="メイリオ, Helvetica Neue, Helvetica, Arial, sans-serif" font-size="14" lengthAdjust="spacing" textLength="39.6758" x="726.1377" y="26.5332">SGML</text><line style="stroke:#000000;stroke-width:1;" x1="721.1377" x2="721.1377" y1="10" y2="31.6094"/><line style="stroke:#000000;stroke-width:1;" x1="638" x2="984.0879" y1="31.6094" y2="31.6094"/><text fill="#000000" font-family="メイリオ, Helvetica Neue, Helvetica, Arial, sans-serif" font-size="14" font-weight="bold" lengthAdjust="spacing" textLength="45.8965" x="643" y="48.1426">SortAs</text><text fill="#000000" font-family="メイリオ, Helvetica Neue, Helvetica, Arial, sans-serif" font-size="14" lengthAdjust="spacing" textLength="39.6758" x="726.1377" y="48.1426">SGML</text><line style="stroke:#000000;stroke-width:1;" x1="721.1377" x2="721.1377" y1="31.6094" y2="53.2188"/><line style="stroke:#000000;stroke-width:1;" x1="638" x2="984.0879" y1="53.2188" y2="53.2188"/><text fill="#000000" font-family="メイリオ, Helvetica Neue, Helvetica, Arial, sans-serif" font-size="14" font-weight="bold" lengthAdjust="spacing" textLength="73.1377" x="643" y="69.752">GlossTerm</text><text fill="#000000" font-family="メイリオ, Helvetica Neue, Helvetica, Arial, sans-serif" font-size="14" lengthAdjust="spacing" textLength="252.9502" x="726.1377" y="69.752">Standard Generalized Markup Language</text><line style="stroke:#000000;stroke-width:1;" x1="721.1377" x2="721.1377" y1="53.2188" y2="74.8281"/><line style="stroke:#000000;stroke-width:1;" x1="638" x2="984.0879" y1="74.8281" y2="74.8281"/><text fill="#000000" font-family="メイリオ, Helvetica Neue, Helvetica, Arial, sans-serif" font-size="14" font-weight="bold" lengthAdjust="spacing" textLength="60.6826" x="643" y="91.3613">Acronym</text><text fill="#000000" font-family="メイリオ, Helvetica Neue, Helvetica, Arial, sans-serif" font-size="14" lengthAdjust="spacing" textLength="39.6758" x="726.1377" y="91.3613">SGML</text><line style="stroke:#000000;stroke-width:1;" x1="721.1377" x2="721.1377" y1="74.8281" y2="96.4375"/><line style="stroke:#000000;stroke-width:1;" x1="638" x2="984.0879" y1="96.4375" y2="96.4375"/><text fill="#000000" font-family="メイリオ, Helvetica Neue, Helvetica, Arial, sans-serif" font-size="14" font-weight="bold" lengthAdjust="spacing" textLength="48.2344" x="643" y="112.9707">Abbrev</text><text fill="#000000" font-family="メイリオ, Helvetica Neue, Helvetica, Arial, sans-serif" font-size="14" lengthAdjust="spacing" textLength="94.1855" x="726.1377" y="112.9707">ISO 8879:1986</text><line style="stroke:#000000;stroke-width:1;" x1="721.1377" x2="721.1377" y1="96.4375" y2="118.0469"/><line style="stroke:#000000;stroke-width:1;" x1="638" x2="984.0879" y1="118.0469" y2="118.0469"/><text fill="#000000" font-family="メイリオ, Helvetica Neue, Helvetica, Arial, sans-serif" font-size="14" font-weight="bold" lengthAdjust="spacing" textLength="61.4619" x="643" y="134.5801">GlossDef</text><text fill="#000000" font-family="メイリオ, Helvetica Neue, Helvetica, Arial, sans-serif" font-size="14" lengthAdjust="spacing" textLength="11.6689" x="726.1377" y="134.5801">&#160;&#160;&#160;</text><line style="stroke:#000000;stroke-width:1;" x1="721.1377" x2="721.1377" y1="118.0469" y2="139.6563"/><line style="stroke:#000000;stroke-width:1;" x1="638" x2="984.0879" y1="139.6563" y2="139.6563"/><text fill="#000000" font-family="メイリオ, Helvetica Neue, Helvetica, Arial, sans-serif" font-size="14" font-weight="bold" lengthAdjust="spacing" textLength="63.8135" x="643" y="156.1895">GlossSee</text><text fill="#000000" font-family="メイリオ, Helvetica Neue, Helvetica, Arial, sans-serif" font-size="14" lengthAdjust="spacing" textLength="46.6826" x="726.1377" y="156.1895">markup</text><line style="stroke:#000000;stroke-width:1;" x1="721.1377" x2="721.1377" y1="139.6563" y2="161.2656"/><rect fill="none" height="151.2656" rx="5" ry="5" style="stroke:#000000;stroke-width:1.5;" width="346.0879" x="638" y="10"/><rect fill="#F1F1F1" height="43.2188" rx="5" ry="5" style="stroke:#F1F1F1;stroke-width:1.5;" width="603.6523" x="1021" y="107.0234"/><text fill="#000000" font-family="メイリオ, Helvetica Neue, Helvetica, Arial, sans-serif" font-size="14" font-weight="bold" lengthAdjust="spacing" textLength="29.5723" x="1026" y="123.5566">para</text><text fill="#000000" font-family="メイリオ, Helvetica Neue, Helvetica, Arial, sans-serif" font-size="14" lengthAdjust="spacing" textLength="489.501" x="1130.1514" y="123.5566">A meta-markup language, used to create markup languages such as DocBook.</text><line style="stroke:#000000;stroke-width:1;" x1="1125.1514" x2="1125.1514" y1="107.0234" y2="128.6328"/><line style="stroke:#000000;stroke-width:1;" x1="1021" x2="1624.6523" y1="128.6328" y2="128.6328"/><text fill="#000000" font-family="メイリオ, Helvetica Neue, Helvetica, Arial, sans-serif" font-size="14" font-weight="bold" lengthAdjust="spacing" textLength="94.1514" x="1026" y="145.166">GlossSeeAlso</text><text fill="#000000" font-family="メイリオ, Helvetica Neue, Helvetica, Arial, sans-serif" font-size="14" lengthAdjust="spacing" textLength="11.6689" x="1130.1514" y="145.166">&#160;&#160;&#160;</text><line style="stroke:#000000;stroke-width:1;" x1="1125.1514" x2="1125.1514" y1="128.6328" y2="150.2422"/><rect fill="none" height="43.2188" rx="5" ry="5" style="stroke:#000000;stroke-width:1.5;" width="603.6523" x="1021" y="107.0234"/><rect fill="#F1F1F1" height="43.2188" rx="5" ry="5" style="stroke:#F1F1F1;stroke-width:1.5;" width="40.3379" x="1662" y="118.0234"/><text fill="#000000" font-family="メイリオ, Helvetica Neue, Helvetica, Arial, sans-serif" font-size="14" lengthAdjust="spacing" textLength="30.3379" x="1667" y="134.5566">GML</text><line style="stroke:#000000;stroke-width:1;" x1="1662" x2="1702.3379" y1="139.6328" y2="139.6328"/><text fill="#000000" font-family="メイリオ, Helvetica Neue, Helvetica, Arial, sans-serif" font-size="14" lengthAdjust="spacing" textLength="28.7861" x="1667" y="156.166">XML</text><rect fill="none" height="43.2188" rx="5" ry="5" style="stroke:#000000;stroke-width:1.5;" width="40.3379" x="1662" y="118.0234"/><path d="M1613,139.6328 L1626,139.6328 C1635.39,139.6328 1645.6737,139.6328 1654.8098,139.6328" fill="none" style="stroke:#000000;stroke-width:1;stroke-dasharray:3,3;"/><path d="M1654.8098,142.7056 L1657.1145,139.6328 L1654.8098,136.56 L1662.4919,139.6328 L1654.8098,142.7056" fill="#000000"/><ellipse cx="1613" cy="139.6328" fill="#000000" rx="3" ry="3" style="stroke:#000000;stroke-width:1;"/><path d="M971.5,128.6328 L984.5,128.6328 C994.086,128.6328 1003.825,128.6328 1013.6583,128.6328" fill="none" style="stroke:#000000;stroke-width:1;stroke-dasharray:3,3;"/><path d="M1013.6583,131.6476 L1015.9194,128.6328 L1013.6583,125.618 L1021.1953,128.6328 L1013.6583,131.6476" fill="#000000"/><ellipse cx="971.5" cy="128.6328" fill="#000000" rx="3" ry="3" style="stroke:#000000;stroke-width:1;"/><path d="M588.5,85.6328 L601.5,85.6328 C611.0417,85.6328 620.8285,85.6328 630.7093,85.6328" fill="none" style="stroke:#000000;stroke-width:1;stroke-dasharray:3,3;"/><path d="M630.7093,88.6615 L632.9808,85.6328 L630.7093,82.6041 L638.2811,85.6328 L630.7093,88.6615" fill="#000000"/><ellipse cx="588.5" cy="85.6328" fill="#000000" rx="3" ry="3" style="stroke:#000000;stroke-width:1;"/><path d="M446,85.6328 L459,85.6328 C468.2139,85.6328 477.9675,85.6328 487.5022,85.6328" fill="none" style="stroke:#000000;stroke-width:1;stroke-dasharray:3,3;"/><path d="M487.5022,88.6669 L489.7778,85.6328 L487.5022,82.5987 L495.0875,85.6328 L487.5022,88.6669" fill="#000000"/><ellipse cx="446" cy="85.6328" fill="#000000" rx="3" ry="3" style="stroke:#000000;stroke-width:1;"/><path d="M314,74.6328 L327,74.6328 C336.3235,74.6328 346.2362,74.6328 355.8446,74.6328" fill="none" style="stroke:#000000;stroke-width:1;stroke-dasharray:3,3;"/><path d="M355.8446,77.6822 L358.1316,74.6328 L355.8446,71.5834 L363.468,74.6328 L355.8446,77.6822" fill="#000000"/><ellipse cx="314" cy="74.6328" fill="#000000" rx="3" ry="3" style="stroke:#000000;stroke-width:1;"/><path d="M87,63.6328 L100,63.6328 C109.2961,63.6328 118.9648,63.6328 128.6477,63.6328" fill="none" style="stroke:#000000;stroke-width:1;stroke-dasharray:3,3;"/><path d="M128.6477,66.7375 L130.9762,63.6328 L128.6477,60.5281 L136.4094,63.6328 L128.6477,66.7375" fill="#000000"/><ellipse cx="87" cy="63.6328" fill="#000000" rx="3" ry="3" style="stroke:#000000;stroke-width:1;"/><!--SRC=[dLJVRzf037w_lyBAKoiLHgEs2r4rDIqCDGi5BRIQDEt191wxajoX-u76AlxtNK9BbS8cqRpaOlkpF_lyvKeRLEPHIm5nEhg3_cyi5mKnTgdDgg1FxFB3yq7FkLYWmXAccCrdIbgHtyX2AZ0AXNOk4eOzCN2FDokargXMNWWRIsqrt1JaJ1vjgi0sx6GRj0qULBuUNpPIDDEaUt1DVCArsKdmwkuByuPZ8-QsLrSP39F_5Df1fLAPIBy7MNEQa2fhi46HeyfXG88K5lmFvJ14DRSBI53CBCxeaEHHfgHObU_X5KsdYggBy6xJ4GJ1nsvusWqk3cwjHp__EUmwgjglgam49HbibPjkY-TkJy1gDmCZ8LE4Xk2DNuEssIz03JsPNKivRn_0iCaq9OeABHsNxruzBF2-kTUFlUdMXyx1PQ-wtD3tTi1hjlzhSrgpDRiYaLUQPMpicZVtmmIMf3HtAZvj-nt_l7rsbAA1s0hm0_0xOQSR-kTEuXEetCViQ31EG4khCeBSYKJngJKEVynYN29yjSBmaa8OBKZ4lIyl1kYB9NTxL5PQZn-6hm4NPwrhRY0bvPZ0mv2voqPR68V8PCx5B8JxoUTMm5vsDuH7P3VkB-8a648y_Wi0]--></g></svg>