<svg xmlns="http://www.w3.org/2000/svg" xmlns:xlink="http://www.w3.org/1999/xlink" contentStyleType="text/css" data-diagram-type="SEQUENCE" height="130px" preserveAspectRatio="none" style="width:215px;height:130px;" version="1.1" viewBox="0 0 215 130" width="215px" zoomAndPan="magnify"><defs/><g><g><title>Alice</title><rect fill="#000000" fill-opacity="0.00000" height="56.3516" width="8" x="23.1724" y="37.6094"/><line style="stroke:#181818;stroke-width:0.5;stroke-dasharray:5,5;" x1="27" x2="27" y1="37.6094" y2="93.9609"/></g><g><title>Bob</title><rect fill="#000000" fill-opacity="0.00000" height="56.3516" width="8" x="74.7998" y="37.6094"/><line style="stroke:#181818;stroke-width:0.5;stroke-dasharray:5,5;" x1="78.3447" x2="78.3447" y1="37.6094" y2="93.9609"/></g><g class="participant participant-head" data-participant="Alice"><rect fill="#E2E2F0" height="31.6094" rx="2.5" ry="2.5" style="stroke:#181818;stroke-width:0.5;" width="44.3447" x="5" y="5"/><text fill="#000000" font-family="メイリオ, Helvetica Neue, Helvetica, Arial, sans-serif" font-size="14" lengthAdjust="spacing" textLength="30.3447" x="12" y="26.5332">Alice</text></g><g class="participant participant-tail" data-participant="Alice"><rect fill="#E2E2F0" height="31.6094" rx="2.5" ry="2.5" style="stroke:#181818;stroke-width:0.5;" width="44.3447" x="5" y="92.9609"/><text fill="#000000" font-family="メイリオ, Helvetica Neue, Helvetica, Arial, sans-serif" font-size="14" lengthAdjust="spacing" textLength="30.3447" x="12" y="114.4941">Alice</text></g><g class="participant participant-head" data-participant="Bob"><rect fill="#E2E2F0" height="31.6094" rx="2.5" ry="2.5" style="stroke:#181818;stroke-width:0.5;" width="38.9102" x="59.3447" y="5"/><text fill="#000000" font-family="メイリオ, Helvetica Neue, Helvetica, Arial, sans-serif" font-size="14" lengthAdjust="spacing" textLength="24.9102" x="66.3447" y="26.5332">Bob</text></g><g class="participant participant-tail" data-participant="Bob"><rect fill="#E2E2F0" height="31.6094" rx="2.5" ry="2.5" style="stroke:#181818;stroke-width:0.5;" width="38.9102" x="59.3447" y="92.9609"/><text fill="#000000" font-family="メイリオ, Helvetica Neue, Helvetica, Arial, sans-serif" font-size="14" lengthAdjust="spacing" textLength="24.9102" x="66.3447" y="114.4941">Bob</text></g><g class="message" data-participant-1="Alice" data-participant-2="Bob"><polygon fill="#181818" points="66.7998,60.7852,76.7998,64.7852,66.7998,68.7852,70.7998,64.7852" style="stroke:#181818;stroke-width:1;"/><line style="stroke:#181818;stroke-width:1;" x1="27.1724" x2="72.7998" y1="64.7852" y2="64.7852"/></g><path d="M83,52.6094 L83,78.6094 L208,78.6094 L208,62.6094 L198,52.6094 L83,52.6094" fill="#FEFFDD" style="stroke:#181818;stroke-width:0.5;"/><path d="M198,52.6094 L198,62.6094 L208,62.6094 L198,52.6094" fill="#FEFFDD" style="stroke:#181818;stroke-width:0.5;"/><text fill="#000000" font-family="メイリオ, Helvetica Neue, Helvetica, Arial, sans-serif" font-size="13" lengthAdjust="spacing" textLength="104" x="89" y="71.1045">&#26085;&#26412;&#35486;&#12398;&#12467;&#12513;&#12531;&#12488;</text><!--SRC=[ioakgSn9jUEoqOSoYhCpymeIYn9p5P8IaxFJY_9ByrASytFoYnHAYXBpYe5IgNabN0f0u9YJcPoge6kdu9IV11R8ooz9LIZAJC-0o8F0i-bBdyrPysBLlCUDwnutRNxSlF1nCv3i02j8pKi1wm40]--></g></svg>