<svg xmlns="http://www.w3.org/2000/svg" xmlns:xlink="http://www.w3.org/1999/xlink" contentStyleType="text/css" data-diagram-type="MINDMAP" height="79px" preserveAspectRatio="none" style="width:1453px;height:79px;" version="1.1" viewBox="0 0 1453 79" width="1453px" zoomAndPan="magnify"><defs/><g><rect fill="#F1F1F1" height="37.6094" rx="12.5" ry="12.5" style="stroke:#181818;stroke-width:1.5;" width="42.5654" x="10" y="20"/><text fill="#000000" font-family="メイリオ, Helvetica Neue, Helvetica, Arial, sans-serif" font-size="14" lengthAdjust="spacing" textLength="22.5654" x="20" y="44.5332">test</text><rect fill="#F1F1F1" height="37.6094" rx="12.5" ry="12.5" style="stroke:#181818;stroke-width:1.5;" width="42.5654" x="102.5654" y="20"/><text fill="#000000" font-family="メイリオ, Helvetica Neue, Helvetica, Arial, sans-serif" font-size="14" lengthAdjust="spacing" textLength="22.5654" x="112.5654" y="44.5332">test</text><rect fill="#F1F1F1" height="37.6094" rx="12.5" ry="12.5" style="stroke:#181818;stroke-width:1.5;" width="42.5654" x="195.1309" y="20"/><text fill="#000000" font-family="メイリオ, Helvetica Neue, Helvetica, Arial, sans-serif" font-size="14" lengthAdjust="spacing" textLength="22.5654" x="205.1309" y="44.5332">test</text><rect fill="#F1F1F1" height="37.6094" rx="12.5" ry="12.5" style="stroke:#181818;stroke-width:1.5;" width="42.5654" x="287.6963" y="20"/><text fill="#000000" font-family="メイリオ, Helvetica Neue, Helvetica, Arial, sans-serif" font-size="14" lengthAdjust="spacing" textLength="22.5654" x="297.6963" y="44.5332">test</text><rect fill="#F1F1F1" height="37.6094" rx="12.5" ry="12.5" style="stroke:#181818;stroke-width:1.5;" width="42.5654" x="380.2617" y="20"/><text fill="#000000" font-family="メイリオ, Helvetica Neue, Helvetica, Arial, sans-serif" font-size="14" lengthAdjust="spacing" textLength="22.5654" x="390.2617" y="44.5332">test</text><rect fill="#F1F1F1" height="37.6094" rx="12.5" ry="12.5" style="stroke:#181818;stroke-width:1.5;" width="42.5654" x="472.8271" y="20"/><text fill="#000000" font-family="メイリオ, Helvetica Neue, Helvetica, Arial, sans-serif" font-size="14" lengthAdjust="spacing" textLength="22.5654" x="482.8271" y="44.5332">test</text><rect fill="#F1F1F1" height="37.6094" rx="12.5" ry="12.5" style="stroke:#181818;stroke-width:1.5;" width="42.5654" x="565.3926" y="20"/><text fill="#000000" font-family="メイリオ, Helvetica Neue, Helvetica, Arial, sans-serif" font-size="14" lengthAdjust="spacing" textLength="22.5654" x="575.3926" y="44.5332">test</text><rect fill="#F1F1F1" height="37.6094" rx="12.5" ry="12.5" style="stroke:#181818;stroke-width:1.5;" width="42.5654" x="657.958" y="20"/><text fill="#000000" font-family="メイリオ, Helvetica Neue, Helvetica, Arial, sans-serif" font-size="14" lengthAdjust="spacing" textLength="22.5654" x="667.958" y="44.5332">test</text><rect fill="#F1F1F1" height="37.6094" rx="12.5" ry="12.5" style="stroke:#181818;stroke-width:1.5;" width="42.5654" x="750.5234" y="20"/><text fill="#000000" font-family="メイリオ, Helvetica Neue, Helvetica, Arial, sans-serif" font-size="14" lengthAdjust="spacing" textLength="22.5654" x="760.5234" y="44.5332">test</text><rect fill="#F1F1F1" height="37.6094" rx="12.5" ry="12.5" style="stroke:#181818;stroke-width:1.5;" width="42.5654" x="843.0889" y="20"/><text fill="#000000" font-family="メイリオ, Helvetica Neue, Helvetica, Arial, sans-serif" font-size="14" lengthAdjust="spacing" textLength="22.5654" x="853.0889" y="44.5332">test</text><rect fill="#F1F1F1" height="37.6094" rx="12.5" ry="12.5" style="stroke:#181818;stroke-width:1.5;" width="42.5654" x="935.6543" y="20"/><text fill="#000000" font-family="メイリオ, Helvetica Neue, Helvetica, Arial, sans-serif" font-size="14" lengthAdjust="spacing" textLength="22.5654" x="945.6543" y="44.5332">test</text><rect fill="#F1F1F1" height="37.6094" rx="12.5" ry="12.5" style="stroke:#181818;stroke-width:1.5;" width="42.5654" x="1028.2197" y="20"/><text fill="#000000" font-family="メイリオ, Helvetica Neue, Helvetica, Arial, sans-serif" font-size="14" lengthAdjust="spacing" textLength="22.5654" x="1038.2197" y="44.5332">test</text><rect fill="#F1F1F1" height="37.6094" rx="12.5" ry="12.5" style="stroke:#181818;stroke-width:1.5;" width="42.5654" x="1120.7852" y="20"/><text fill="#000000" font-family="メイリオ, Helvetica Neue, Helvetica, Arial, sans-serif" font-size="14" lengthAdjust="spacing" textLength="22.5654" x="1130.7852" y="44.5332">test</text><rect fill="#F1F1F1" height="37.6094" rx="12.5" ry="12.5" style="stroke:#181818;stroke-width:1.5;" width="42.5654" x="1213.3506" y="20"/><text fill="#000000" font-family="メイリオ, Helvetica Neue, Helvetica, Arial, sans-serif" font-size="14" lengthAdjust="spacing" textLength="22.5654" x="1223.3506" y="44.5332">test</text><rect fill="#F1F1F1" height="37.6094" rx="12.5" ry="12.5" style="stroke:#181818;stroke-width:1.5;" width="42.5654" x="1305.916" y="20"/><text fill="#000000" font-family="メイリオ, Helvetica Neue, Helvetica, Arial, sans-serif" font-size="14" lengthAdjust="spacing" textLength="22.5654" x="1315.916" y="44.5332">test</text><rect fill="#F1F1F1" height="37.6094" rx="12.5" ry="12.5" style="stroke:#181818;stroke-width:1.5;" width="42.5654" x="1398.4814" y="20"/><text fill="#000000" font-family="メイリオ, Helvetica Neue, Helvetica, Arial, sans-serif" font-size="14" lengthAdjust="spacing" textLength="22.5654" x="1408.4814" y="44.5332">test</text><path d="M1348.4814,38.8047 L1358.4814,38.8047 C1373.4814,38.8047 1373.4814,38.8047 1388.4814,38.8047 L1398.4814,38.8047" fill="none" style="stroke:#181818;stroke-width:1;"/><path d="M1255.916,38.8047 L1265.916,38.8047 C1280.916,38.8047 1280.916,38.8047 1295.916,38.8047 L1305.916,38.8047" fill="none" style="stroke:#181818;stroke-width:1;"/><path d="M1163.3506,38.8047 L1173.3506,38.8047 C1188.3506,38.8047 1188.3506,38.8047 1203.3506,38.8047 L1213.3506,38.8047" fill="none" style="stroke:#181818;stroke-width:1;"/><path d="M1070.7852,38.8047 L1080.7852,38.8047 C1095.7852,38.8047 1095.7852,38.8047 1110.7852,38.8047 L1120.7852,38.8047" fill="none" style="stroke:#181818;stroke-width:1;"/><path d="M978.2197,38.8047 L988.2197,38.8047 C1003.2197,38.8047 1003.2197,38.8047 1018.2197,38.8047 L1028.2197,38.8047" fill="none" style="stroke:#181818;stroke-width:1;"/><path d="M885.6543,38.8047 L895.6543,38.8047 C910.6543,38.8047 910.6543,38.8047 925.6543,38.8047 L935.6543,38.8047" fill="none" style="stroke:#181818;stroke-width:1;"/><path d="M793.0889,38.8047 L803.0889,38.8047 C818.0889,38.8047 818.0889,38.8047 833.0889,38.8047 L843.0889,38.8047" fill="none" style="stroke:#181818;stroke-width:1;"/><path d="M700.5234,38.8047 L710.5234,38.8047 C725.5234,38.8047 725.5234,38.8047 740.5234,38.8047 L750.5234,38.8047" fill="none" style="stroke:#181818;stroke-width:1;"/><path d="M607.958,38.8047 L617.958,38.8047 C632.958,38.8047 632.958,38.8047 647.958,38.8047 L657.958,38.8047" fill="none" style="stroke:#181818;stroke-width:1;"/><path d="M515.3926,38.8047 L525.3926,38.8047 C540.3926,38.8047 540.3926,38.8047 555.3926,38.8047 L565.3926,38.8047" fill="none" style="stroke:#181818;stroke-width:1;"/><path d="M422.8271,38.8047 L432.8271,38.8047 C447.8271,38.8047 447.8271,38.8047 462.8271,38.8047 L472.8271,38.8047" fill="none" style="stroke:#181818;stroke-width:1;"/><path d="M330.2617,38.8047 L340.2617,38.8047 C355.2617,38.8047 355.2617,38.8047 370.2617,38.8047 L380.2617,38.8047" fill="none" style="stroke:#181818;stroke-width:1;"/><path d="M237.6963,38.8047 L247.6963,38.8047 C262.6963,38.8047 262.6963,38.8047 277.6963,38.8047 L287.6963,38.8047" fill="none" style="stroke:#181818;stroke-width:1;"/><path d="M145.1309,38.8047 L155.1309,38.8047 C170.1309,38.8047 170.1309,38.8047 185.1309,38.8047 L195.1309,38.8047" fill="none" style="stroke:#181818;stroke-width:1;"/><path d="M52.5654,38.8047 L62.5654,38.8047 C77.5654,38.8047 77.5654,38.8047 92.5654,38.8047 L102.5654,38.8047" fill="none" style="stroke:#181818;stroke-width:1;"/><!--SRC=[hPFDJm8n4CNl_Ilc22QBk0636sA8e2OhHE82LpEmTQrifvjsYk6_jqID7FpWmvwcxxrVqyERdcEqh1Nb6YjG6WiPlQgSdoE7kYhbOon4r_6wb9UYU_enkAMY2YrgcEDYMLZZAU-RqbXWY-I29Od52R1qB22ShV6Rwm_IB_8VrWxsZf4zOdj63uWVY1o17Od-0xxrH4-6ahuNLOXnYSJJqH1MqZfb2CuQSJDkDrgr31bIJn1t86ucpOiaRaEQJM1ZrqNjTZm4PxnTICYLOwlcdWDV5ock41uyiT8oWVjAKZgu-nJWcbRA6jAROgUpqLVWl1LTAOPCsl0Jc8t4G3wXBpaG2vChAXAOJcwYZXWY5JwiLm8lAFfXPTYk4qZ7Rm00]--></g></svg>