<svg xmlns="http://www.w3.org/2000/svg" xmlns:xlink="http://www.w3.org/1999/xlink" contentStyleType="text/css" data-diagram-type="MINDMAP" height="79px" preserveAspectRatio="none" style="width:2934px;height:79px;" version="1.1" viewBox="0 0 2934 79" width="2934px" zoomAndPan="magnify"><defs/><g><rect fill="#F1F1F1" height="37.6094" rx="12.5" ry="12.5" style="stroke:#181818;stroke-width:1.5;" width="42.5654" x="10" y="20"/><text fill="#000000" font-family="メイリオ, Helvetica Neue, Helvetica, Arial, sans-serif" font-size="14" lengthAdjust="spacing" textLength="22.5654" x="20" y="44.5332">test</text><rect fill="#F1F1F1" height="37.6094" rx="12.5" ry="12.5" style="stroke:#181818;stroke-width:1.5;" width="42.5654" x="102.5654" y="20"/><text fill="#000000" font-family="メイリオ, Helvetica Neue, Helvetica, Arial, sans-serif" font-size="14" lengthAdjust="spacing" textLength="22.5654" x="112.5654" y="44.5332">test</text><rect fill="#F1F1F1" height="37.6094" rx="12.5" ry="12.5" style="stroke:#181818;stroke-width:1.5;" width="42.5654" x="195.1309" y="20"/><text fill="#000000" font-family="メイリオ, Helvetica Neue, Helvetica, Arial, sans-serif" font-size="14" lengthAdjust="spacing" textLength="22.5654" x="205.1309" y="44.5332">test</text><rect fill="#F1F1F1" height="37.6094" rx="12.5" ry="12.5" style="stroke:#181818;stroke-width:1.5;" width="42.5654" x="287.6963" y="20"/><text fill="#000000" font-family="メイリオ, Helvetica Neue, Helvetica, Arial, sans-serif" font-size="14" lengthAdjust="spacing" textLength="22.5654" x="297.6963" y="44.5332">test</text><rect fill="#F1F1F1" height="37.6094" rx="12.5" ry="12.5" style="stroke:#181818;stroke-width:1.5;" width="42.5654" x="380.2617" y="20"/><text fill="#000000" font-family="メイリオ, Helvetica Neue, Helvetica, Arial, sans-serif" font-size="14" lengthAdjust="spacing" textLength="22.5654" x="390.2617" y="44.5332">test</text><rect fill="#F1F1F1" height="37.6094" rx="12.5" ry="12.5" style="stroke:#181818;stroke-width:1.5;" width="42.5654" x="472.8271" y="20"/><text fill="#000000" font-family="メイリオ, Helvetica Neue, Helvetica, Arial, sans-serif" font-size="14" lengthAdjust="spacing" textLength="22.5654" x="482.8271" y="44.5332">test</text><rect fill="#F1F1F1" height="37.6094" rx="12.5" ry="12.5" style="stroke:#181818;stroke-width:1.5;" width="42.5654" x="565.3926" y="20"/><text fill="#000000" font-family="メイリオ, Helvetica Neue, Helvetica, Arial, sans-serif" font-size="14" lengthAdjust="spacing" textLength="22.5654" x="575.3926" y="44.5332">test</text><rect fill="#F1F1F1" height="37.6094" rx="12.5" ry="12.5" style="stroke:#181818;stroke-width:1.5;" width="42.5654" x="657.958" y="20"/><text fill="#000000" font-family="メイリオ, Helvetica Neue, Helvetica, Arial, sans-serif" font-size="14" lengthAdjust="spacing" textLength="22.5654" x="667.958" y="44.5332">test</text><rect fill="#F1F1F1" height="37.6094" rx="12.5" ry="12.5" style="stroke:#181818;stroke-width:1.5;" width="42.5654" x="750.5234" y="20"/><text fill="#000000" font-family="メイリオ, Helvetica Neue, Helvetica, Arial, sans-serif" font-size="14" lengthAdjust="spacing" textLength="22.5654" x="760.5234" y="44.5332">test</text><rect fill="#F1F1F1" height="37.6094" rx="12.5" ry="12.5" style="stroke:#181818;stroke-width:1.5;" width="42.5654" x="843.0889" y="20"/><text fill="#000000" font-family="メイリオ, Helvetica Neue, Helvetica, Arial, sans-serif" font-size="14" lengthAdjust="spacing" textLength="22.5654" x="853.0889" y="44.5332">test</text><rect fill="#F1F1F1" height="37.6094" rx="12.5" ry="12.5" style="stroke:#181818;stroke-width:1.5;" width="42.5654" x="935.6543" y="20"/><text fill="#000000" font-family="メイリオ, Helvetica Neue, Helvetica, Arial, sans-serif" font-size="14" lengthAdjust="spacing" textLength="22.5654" x="945.6543" y="44.5332">test</text><rect fill="#F1F1F1" height="37.6094" rx="12.5" ry="12.5" style="stroke:#181818;stroke-width:1.5;" width="42.5654" x="1028.2197" y="20"/><text fill="#000000" font-family="メイリオ, Helvetica Neue, Helvetica, Arial, sans-serif" font-size="14" lengthAdjust="spacing" textLength="22.5654" x="1038.2197" y="44.5332">test</text><rect fill="#F1F1F1" height="37.6094" rx="12.5" ry="12.5" style="stroke:#181818;stroke-width:1.5;" width="42.5654" x="1120.7852" y="20"/><text fill="#000000" font-family="メイリオ, Helvetica Neue, Helvetica, Arial, sans-serif" font-size="14" lengthAdjust="spacing" textLength="22.5654" x="1130.7852" y="44.5332">test</text><rect fill="#F1F1F1" height="37.6094" rx="12.5" ry="12.5" style="stroke:#181818;stroke-width:1.5;" width="42.5654" x="1213.3506" y="20"/><text fill="#000000" font-family="メイリオ, Helvetica Neue, Helvetica, Arial, sans-serif" font-size="14" lengthAdjust="spacing" textLength="22.5654" x="1223.3506" y="44.5332">test</text><rect fill="#F1F1F1" height="37.6094" rx="12.5" ry="12.5" style="stroke:#181818;stroke-width:1.5;" width="42.5654" x="1305.916" y="20"/><text fill="#000000" font-family="メイリオ, Helvetica Neue, Helvetica, Arial, sans-serif" font-size="14" lengthAdjust="spacing" textLength="22.5654" x="1315.916" y="44.5332">test</text><rect fill="#F1F1F1" height="37.6094" rx="12.5" ry="12.5" style="stroke:#181818;stroke-width:1.5;" width="42.5654" x="1398.4814" y="20"/><text fill="#000000" font-family="メイリオ, Helvetica Neue, Helvetica, Arial, sans-serif" font-size="14" lengthAdjust="spacing" textLength="22.5654" x="1408.4814" y="44.5332">test</text><rect fill="#F1F1F1" height="37.6094" rx="12.5" ry="12.5" style="stroke:#181818;stroke-width:1.5;" width="42.5654" x="1491.0469" y="20"/><text fill="#000000" font-family="メイリオ, Helvetica Neue, Helvetica, Arial, sans-serif" font-size="14" lengthAdjust="spacing" textLength="22.5654" x="1501.0469" y="44.5332">test</text><rect fill="#F1F1F1" height="37.6094" rx="12.5" ry="12.5" style="stroke:#181818;stroke-width:1.5;" width="42.5654" x="1583.6123" y="20"/><text fill="#000000" font-family="メイリオ, Helvetica Neue, Helvetica, Arial, sans-serif" font-size="14" lengthAdjust="spacing" textLength="22.5654" x="1593.6123" y="44.5332">test</text><rect fill="#F1F1F1" height="37.6094" rx="12.5" ry="12.5" style="stroke:#181818;stroke-width:1.5;" width="42.5654" x="1676.1777" y="20"/><text fill="#000000" font-family="メイリオ, Helvetica Neue, Helvetica, Arial, sans-serif" font-size="14" lengthAdjust="spacing" textLength="22.5654" x="1686.1777" y="44.5332">test</text><rect fill="#F1F1F1" height="37.6094" rx="12.5" ry="12.5" style="stroke:#181818;stroke-width:1.5;" width="42.5654" x="1768.7432" y="20"/><text fill="#000000" font-family="メイリオ, Helvetica Neue, Helvetica, Arial, sans-serif" font-size="14" lengthAdjust="spacing" textLength="22.5654" x="1778.7432" y="44.5332">test</text><rect fill="#F1F1F1" height="37.6094" rx="12.5" ry="12.5" style="stroke:#181818;stroke-width:1.5;" width="42.5654" x="1861.3086" y="20"/><text fill="#000000" font-family="メイリオ, Helvetica Neue, Helvetica, Arial, sans-serif" font-size="14" lengthAdjust="spacing" textLength="22.5654" x="1871.3086" y="44.5332">test</text><rect fill="#F1F1F1" height="37.6094" rx="12.5" ry="12.5" style="stroke:#181818;stroke-width:1.5;" width="42.5654" x="1953.874" y="20"/><text fill="#000000" font-family="メイリオ, Helvetica Neue, Helvetica, Arial, sans-serif" font-size="14" lengthAdjust="spacing" textLength="22.5654" x="1963.874" y="44.5332">test</text><rect fill="#F1F1F1" height="37.6094" rx="12.5" ry="12.5" style="stroke:#181818;stroke-width:1.5;" width="42.5654" x="2046.4395" y="20"/><text fill="#000000" font-family="メイリオ, Helvetica Neue, Helvetica, Arial, sans-serif" font-size="14" lengthAdjust="spacing" textLength="22.5654" x="2056.4395" y="44.5332">test</text><rect fill="#F1F1F1" height="37.6094" rx="12.5" ry="12.5" style="stroke:#181818;stroke-width:1.5;" width="42.5654" x="2139.0049" y="20"/><text fill="#000000" font-family="メイリオ, Helvetica Neue, Helvetica, Arial, sans-serif" font-size="14" lengthAdjust="spacing" textLength="22.5654" x="2149.0049" y="44.5332">test</text><rect fill="#F1F1F1" height="37.6094" rx="12.5" ry="12.5" style="stroke:#181818;stroke-width:1.5;" width="42.5654" x="2231.5703" y="20"/><text fill="#000000" font-family="メイリオ, Helvetica Neue, Helvetica, Arial, sans-serif" font-size="14" lengthAdjust="spacing" textLength="22.5654" x="2241.5703" y="44.5332">test</text><rect fill="#F1F1F1" height="37.6094" rx="12.5" ry="12.5" style="stroke:#181818;stroke-width:1.5;" width="42.5654" x="2324.1357" y="20"/><text fill="#000000" font-family="メイリオ, Helvetica Neue, Helvetica, Arial, sans-serif" font-size="14" lengthAdjust="spacing" textLength="22.5654" x="2334.1357" y="44.5332">test</text><rect fill="#F1F1F1" height="37.6094" rx="12.5" ry="12.5" style="stroke:#181818;stroke-width:1.5;" width="42.5654" x="2416.7012" y="20"/><text fill="#000000" font-family="メイリオ, Helvetica Neue, Helvetica, Arial, sans-serif" font-size="14" lengthAdjust="spacing" textLength="22.5654" x="2426.7012" y="44.5332">test</text><rect fill="#F1F1F1" height="37.6094" rx="12.5" ry="12.5" style="stroke:#181818;stroke-width:1.5;" width="42.5654" x="2509.2666" y="20"/><text fill="#000000" font-family="メイリオ, Helvetica Neue, Helvetica, Arial, sans-serif" font-size="14" lengthAdjust="spacing" textLength="22.5654" x="2519.2666" y="44.5332">test</text><rect fill="#F1F1F1" height="37.6094" rx="12.5" ry="12.5" style="stroke:#181818;stroke-width:1.5;" width="42.5654" x="2601.832" y="20"/><text fill="#000000" font-family="メイリオ, Helvetica Neue, Helvetica, Arial, sans-serif" font-size="14" lengthAdjust="spacing" textLength="22.5654" x="2611.832" y="44.5332">test</text><rect fill="#F1F1F1" height="37.6094" rx="12.5" ry="12.5" style="stroke:#181818;stroke-width:1.5;" width="42.5654" x="2694.3975" y="20"/><text fill="#000000" font-family="メイリオ, Helvetica Neue, Helvetica, Arial, sans-serif" font-size="14" lengthAdjust="spacing" textLength="22.5654" x="2704.3975" y="44.5332">test</text><rect fill="#F1F1F1" height="37.6094" rx="12.5" ry="12.5" style="stroke:#181818;stroke-width:1.5;" width="42.5654" x="2786.9629" y="20"/><text fill="#000000" font-family="メイリオ, Helvetica Neue, Helvetica, Arial, sans-serif" font-size="14" lengthAdjust="spacing" textLength="22.5654" x="2796.9629" y="44.5332">test</text><rect fill="#F1F1F1" height="37.6094" rx="12.5" ry="12.5" style="stroke:#181818;stroke-width:1.5;" width="42.5654" x="2879.5283" y="20"/><text fill="#000000" font-family="メイリオ, Helvetica Neue, Helvetica, Arial, sans-serif" font-size="14" lengthAdjust="spacing" textLength="22.5654" x="2889.5283" y="44.5332">test</text><path d="M2829.5283,38.8047 L2839.5283,38.8047 C2854.5283,38.8047 2854.5283,38.8047 2869.5283,38.8047 L2879.5283,38.8047" fill="none" style="stroke:#181818;stroke-width:1;"/><path d="M2736.9629,38.8047 L2746.9629,38.8047 C2761.9629,38.8047 2761.9629,38.8047 2776.9629,38.8047 L2786.9629,38.8047" fill="none" style="stroke:#181818;stroke-width:1;"/><path d="M2644.3975,38.8047 L2654.3975,38.8047 C2669.3975,38.8047 2669.3975,38.8047 2684.3975,38.8047 L2694.3975,38.8047" fill="none" style="stroke:#181818;stroke-width:1;"/><path d="M2551.832,38.8047 L2561.832,38.8047 C2576.832,38.8047 2576.832,38.8047 2591.832,38.8047 L2601.832,38.8047" fill="none" style="stroke:#181818;stroke-width:1;"/><path d="M2459.2666,38.8047 L2469.2666,38.8047 C2484.2666,38.8047 2484.2666,38.8047 2499.2666,38.8047 L2509.2666,38.8047" fill="none" style="stroke:#181818;stroke-width:1;"/><path d="M2366.7012,38.8047 L2376.7012,38.8047 C2391.7012,38.8047 2391.7012,38.8047 2406.7012,38.8047 L2416.7012,38.8047" fill="none" style="stroke:#181818;stroke-width:1;"/><path d="M2274.1357,38.8047 L2284.1357,38.8047 C2299.1357,38.8047 2299.1357,38.8047 2314.1357,38.8047 L2324.1357,38.8047" fill="none" style="stroke:#181818;stroke-width:1;"/><path d="M2181.5703,38.8047 L2191.5703,38.8047 C2206.5703,38.8047 2206.5703,38.8047 2221.5703,38.8047 L2231.5703,38.8047" fill="none" style="stroke:#181818;stroke-width:1;"/><path d="M2089.0049,38.8047 L2099.0049,38.8047 C2114.0049,38.8047 2114.0049,38.8047 2129.0049,38.8047 L2139.0049,38.8047" fill="none" style="stroke:#181818;stroke-width:1;"/><path d="M1996.4395,38.8047 L2006.4395,38.8047 C2021.4395,38.8047 2021.4395,38.8047 2036.4395,38.8047 L2046.4395,38.8047" fill="none" style="stroke:#181818;stroke-width:1;"/><path d="M1903.874,38.8047 L1913.874,38.8047 C1928.874,38.8047 1928.874,38.8047 1943.874,38.8047 L1953.874,38.8047" fill="none" style="stroke:#181818;stroke-width:1;"/><path d="M1811.3086,38.8047 L1821.3086,38.8047 C1836.3086,38.8047 1836.3086,38.8047 1851.3086,38.8047 L1861.3086,38.8047" fill="none" style="stroke:#181818;stroke-width:1;"/><path d="M1718.7432,38.8047 L1728.7432,38.8047 C1743.7432,38.8047 1743.7432,38.8047 1758.7432,38.8047 L1768.7432,38.8047" fill="none" style="stroke:#181818;stroke-width:1;"/><path d="M1626.1777,38.8047 L1636.1777,38.8047 C1651.1777,38.8047 1651.1777,38.8047 1666.1777,38.8047 L1676.1777,38.8047" fill="none" style="stroke:#181818;stroke-width:1;"/><path d="M1533.6123,38.8047 L1543.6123,38.8047 C1558.6123,38.8047 1558.6123,38.8047 1573.6123,38.8047 L1583.6123,38.8047" fill="none" style="stroke:#181818;stroke-width:1;"/><path d="M1441.0469,38.8047 L1451.0469,38.8047 C1466.0469,38.8047 1466.0469,38.8047 1481.0469,38.8047 L1491.0469,38.8047" fill="none" style="stroke:#181818;stroke-width:1;"/><path d="M1348.4814,38.8047 L1358.4814,38.8047 C1373.4814,38.8047 1373.4814,38.8047 1388.4814,38.8047 L1398.4814,38.8047" fill="none" style="stroke:#181818;stroke-width:1;"/><path d="M1255.916,38.8047 L1265.916,38.8047 C1280.916,38.8047 1280.916,38.8047 1295.916,38.8047 L1305.916,38.8047" fill="none" style="stroke:#181818;stroke-width:1;"/><path d="M1163.3506,38.8047 L1173.3506,38.8047 C1188.3506,38.8047 1188.3506,38.8047 1203.3506,38.8047 L1213.3506,38.8047" fill="none" style="stroke:#181818;stroke-width:1;"/><path d="M1070.7852,38.8047 L1080.7852,38.8047 C1095.7852,38.8047 1095.7852,38.8047 1110.7852,38.8047 L1120.7852,38.8047" fill="none" style="stroke:#181818;stroke-width:1;"/><path d="M978.2197,38.8047 L988.2197,38.8047 C1003.2197,38.8047 1003.2197,38.8047 1018.2197,38.8047 L1028.2197,38.8047" fill="none" style="stroke:#181818;stroke-width:1;"/><path d="M885.6543,38.8047 L895.6543,38.8047 C910.6543,38.8047 910.6543,38.8047 925.6543,38.8047 L935.6543,38.8047" fill="none" style="stroke:#181818;stroke-width:1;"/><path d="M793.0889,38.8047 L803.0889,38.8047 C818.0889,38.8047 818.0889,38.8047 833.0889,38.8047 L843.0889,38.8047" fill="none" style="stroke:#181818;stroke-width:1;"/><path d="M700.5234,38.8047 L710.5234,38.8047 C725.5234,38.8047 725.5234,38.8047 740.5234,38.8047 L750.5234,38.8047" fill="none" style="stroke:#181818;stroke-width:1;"/><path d="M607.958,38.8047 L617.958,38.8047 C632.958,38.8047 632.958,38.8047 647.958,38.8047 L657.958,38.8047" fill="none" style="stroke:#181818;stroke-width:1;"/><path d="M515.3926,38.8047 L525.3926,38.8047 C540.3926,38.8047 540.3926,38.8047 555.3926,38.8047 L565.3926,38.8047" fill="none" style="stroke:#181818;stroke-width:1;"/><path d="M422.8271,38.8047 L432.8271,38.8047 C447.8271,38.8047 447.8271,38.8047 462.8271,38.8047 L472.8271,38.8047" fill="none" style="stroke:#181818;stroke-width:1;"/><path d="M330.2617,38.8047 L340.2617,38.8047 C355.2617,38.8047 355.2617,38.8047 370.2617,38.8047 L380.2617,38.8047" fill="none" style="stroke:#181818;stroke-width:1;"/><path d="M237.6963,38.8047 L247.6963,38.8047 C262.6963,38.8047 262.6963,38.8047 277.6963,38.8047 L287.6963,38.8047" fill="none" style="stroke:#181818;stroke-width:1;"/><path d="M145.1309,38.8047 L155.1309,38.8047 C170.1309,38.8047 170.1309,38.8047 185.1309,38.8047 L195.1309,38.8047" fill="none" style="stroke:#181818;stroke-width:1;"/><path d="M52.5654,38.8047 L62.5654,38.8047 C77.5654,38.8047 77.5654,38.8047 92.5654,38.8047 L102.5654,38.8047" fill="none" style="stroke:#181818;stroke-width:1;"/><!--SRC=[pLPBJy904BxlhvWZc1InWi6662AeIOL0v74r0rthIdVRx4un_7kNg9633nvzkAVP-Lvp_3g6K9CKAf2OW90OSkTL1FJi69H9n1_F6MiRMaVyYhLFFmQp52f1ZHBck5Y6EavLq8sZM0DfLCP2N14x0UA66DYtDNxp_M7ro_eFQ0TuHyeUj3sf1z0Fb1mXErAQWJmZYmnjChRAmIudonnjSxOkmBwWY09Z2eug8Qwao19ZIux-1_5R9tIuBJtlnOUnKOIAfeC-hBWs8bPmLdFhRhFMg8oHm4yLk2rmwrxzqdERu8ydi86hh78tweE9KxtW40X3MinJilegyt65y90g4f9xC4ouydltdmkuKIkXOoKtHScV3Ru85mtdMX2CkRQNm6p0Ulm9quYiOX47GeKUJ2UtJelrKOMfhMiUl23hsWf6Uks1Fte3]--></g></svg>